<mxfile host="app.diagrams.net" agent="Mozilla/5.0 (Windows NT 10.0; Win64; x64; rv:143.0) Gecko/20100101 Firefox/143.0" version="28.2.7">
  <diagram name="Page-1" id="89xXIWMPDWdY5yrI6WPq">
    <mxGraphModel dx="1064" dy="605" grid="1" gridSize="10" guides="1" tooltips="1" connect="1" arrows="1" fold="1" page="1" pageScale="1" pageWidth="827" pageHeight="1169" math="0" shadow="0">
      <root>
        <mxCell id="0" />
        <mxCell id="1" parent="0" />
        <mxCell id="FNHXN5gUOuqcqyS2Xem4-37" value="moncompte.dawan.fr" style="shape=umlFrame;whiteSpace=wrap;html=1;pointerEvents=0;recursiveResize=0;container=1;collapsible=0;width=160;" vertex="1" parent="1">
          <mxGeometry x="170" y="70" width="590" height="470" as="geometry" />
        </mxCell>
        <mxCell id="FNHXN5gUOuqcqyS2Xem4-38" value="Participant" style="html=1;whiteSpace=wrap;" vertex="1" parent="FNHXN5gUOuqcqyS2Xem4-37">
          <mxGeometry x="40" y="160" width="110" height="50" as="geometry" />
        </mxCell>
        <mxCell id="FNHXN5gUOuqcqyS2Xem4-39" value="Formateur" style="html=1;whiteSpace=wrap;" vertex="1" parent="FNHXN5gUOuqcqyS2Xem4-37">
          <mxGeometry x="40" y="280" width="110" height="50" as="geometry" />
        </mxCell>
        <mxCell id="FNHXN5gUOuqcqyS2Xem4-40" value="Auth" style="html=1;whiteSpace=wrap;" vertex="1" parent="FNHXN5gUOuqcqyS2Xem4-37">
          <mxGeometry x="260" y="50" width="110" height="50" as="geometry" />
        </mxCell>
        <mxCell id="FNHXN5gUOuqcqyS2Xem4-41" value="Fiche Présence" style="html=1;whiteSpace=wrap;" vertex="1" parent="FNHXN5gUOuqcqyS2Xem4-37">
          <mxGeometry x="260" y="260" width="110" height="50" as="geometry" />
        </mxCell>
        <mxCell id="FNHXN5gUOuqcqyS2Xem4-42" value="Fiche Eval" style="html=1;whiteSpace=wrap;" vertex="1" parent="FNHXN5gUOuqcqyS2Xem4-37">
          <mxGeometry x="260" y="370" width="110" height="50" as="geometry" />
        </mxCell>
        <mxCell id="FNHXN5gUOuqcqyS2Xem4-43" value="Signature" style="html=1;whiteSpace=wrap;" vertex="1" parent="FNHXN5gUOuqcqyS2Xem4-37">
          <mxGeometry x="440" y="260" width="110" height="50" as="geometry" />
        </mxCell>
        <mxCell id="FNHXN5gUOuqcqyS2Xem4-44" value="Absence" style="html=1;whiteSpace=wrap;" vertex="1" parent="FNHXN5gUOuqcqyS2Xem4-37">
          <mxGeometry x="260" y="150" width="110" height="50" as="geometry" />
        </mxCell>
        <mxCell id="FNHXN5gUOuqcqyS2Xem4-45" value="Crtière" style="html=1;whiteSpace=wrap;" vertex="1" parent="FNHXN5gUOuqcqyS2Xem4-37">
          <mxGeometry x="430" y="370" width="110" height="50" as="geometry" />
        </mxCell>
        <mxCell id="FNHXN5gUOuqcqyS2Xem4-47" value="" style="html=1;verticalAlign=bottom;labelBackgroundColor=none;endArrow=oval;endFill=0;endSize=8;rounded=0;entryX=0;entryY=0.25;entryDx=0;entryDy=0;exitX=1;exitY=0.5;exitDx=0;exitDy=0;" edge="1" parent="FNHXN5gUOuqcqyS2Xem4-37" source="FNHXN5gUOuqcqyS2Xem4-38" target="FNHXN5gUOuqcqyS2Xem4-40">
          <mxGeometry width="160" relative="1" as="geometry">
            <mxPoint x="160" y="180" as="sourcePoint" />
            <mxPoint x="320" y="180" as="targetPoint" />
          </mxGeometry>
        </mxCell>
        <mxCell id="FNHXN5gUOuqcqyS2Xem4-48" value="" style="html=1;verticalAlign=bottom;labelBackgroundColor=none;endArrow=oval;endFill=0;endSize=8;rounded=0;entryX=0;entryY=0.75;entryDx=0;entryDy=0;exitX=1;exitY=0;exitDx=0;exitDy=0;" edge="1" parent="FNHXN5gUOuqcqyS2Xem4-37" source="FNHXN5gUOuqcqyS2Xem4-39" target="FNHXN5gUOuqcqyS2Xem4-40">
          <mxGeometry width="160" relative="1" as="geometry">
            <mxPoint x="170" y="192" as="sourcePoint" />
            <mxPoint x="280" y="170" as="targetPoint" />
          </mxGeometry>
        </mxCell>
        <mxCell id="FNHXN5gUOuqcqyS2Xem4-49" value="" style="html=1;verticalAlign=bottom;labelBackgroundColor=none;endArrow=oval;endFill=0;endSize=8;rounded=0;entryX=0;entryY=0.5;entryDx=0;entryDy=0;exitX=1;exitY=0.75;exitDx=0;exitDy=0;" edge="1" parent="FNHXN5gUOuqcqyS2Xem4-37" source="FNHXN5gUOuqcqyS2Xem4-38" target="FNHXN5gUOuqcqyS2Xem4-44">
          <mxGeometry width="160" relative="1" as="geometry">
            <mxPoint x="190" y="192" as="sourcePoint" />
            <mxPoint x="300" y="170" as="targetPoint" />
          </mxGeometry>
        </mxCell>
        <mxCell id="FNHXN5gUOuqcqyS2Xem4-50" value="" style="html=1;verticalAlign=bottom;labelBackgroundColor=none;endArrow=oval;endFill=0;endSize=8;rounded=0;entryX=0.5;entryY=0;entryDx=0;entryDy=0;exitX=1;exitY=0.5;exitDx=0;exitDy=0;" edge="1" parent="FNHXN5gUOuqcqyS2Xem4-37" source="FNHXN5gUOuqcqyS2Xem4-44" target="FNHXN5gUOuqcqyS2Xem4-43">
          <mxGeometry width="160" relative="1" as="geometry">
            <mxPoint x="230" y="193" as="sourcePoint" />
            <mxPoint x="340" y="170" as="targetPoint" />
          </mxGeometry>
        </mxCell>
        <mxCell id="FNHXN5gUOuqcqyS2Xem4-51" value="" style="html=1;verticalAlign=bottom;labelBackgroundColor=none;endArrow=oval;endFill=0;endSize=8;rounded=0;entryX=0;entryY=0.25;entryDx=0;entryDy=0;exitX=1;exitY=0.25;exitDx=0;exitDy=0;" edge="1" parent="FNHXN5gUOuqcqyS2Xem4-37" source="FNHXN5gUOuqcqyS2Xem4-39" target="FNHXN5gUOuqcqyS2Xem4-41">
          <mxGeometry width="160" relative="1" as="geometry">
            <mxPoint x="450" y="230" as="sourcePoint" />
            <mxPoint x="575" y="315" as="targetPoint" />
          </mxGeometry>
        </mxCell>
        <mxCell id="FNHXN5gUOuqcqyS2Xem4-52" value="" style="html=1;verticalAlign=bottom;labelBackgroundColor=none;endArrow=oval;endFill=0;endSize=8;rounded=0;exitX=1;exitY=0.5;exitDx=0;exitDy=0;entryX=0;entryY=0.25;entryDx=0;entryDy=0;" edge="1" parent="FNHXN5gUOuqcqyS2Xem4-37" source="FNHXN5gUOuqcqyS2Xem4-39" target="FNHXN5gUOuqcqyS2Xem4-42">
          <mxGeometry width="160" relative="1" as="geometry">
            <mxPoint x="30" y="330" as="sourcePoint" />
            <mxPoint x="140" y="310" as="targetPoint" />
          </mxGeometry>
        </mxCell>
        <mxCell id="FNHXN5gUOuqcqyS2Xem4-53" value="" style="html=1;verticalAlign=bottom;labelBackgroundColor=none;endArrow=oval;endFill=0;endSize=8;rounded=0;entryX=0;entryY=0.5;entryDx=0;entryDy=0;exitX=1;exitY=0.5;exitDx=0;exitDy=0;" edge="1" parent="FNHXN5gUOuqcqyS2Xem4-37" source="FNHXN5gUOuqcqyS2Xem4-41" target="FNHXN5gUOuqcqyS2Xem4-43">
          <mxGeometry width="160" relative="1" as="geometry">
            <mxPoint x="200" y="300" as="sourcePoint" />
            <mxPoint x="310" y="280" as="targetPoint" />
          </mxGeometry>
        </mxCell>
        <mxCell id="FNHXN5gUOuqcqyS2Xem4-54" value="" style="html=1;verticalAlign=bottom;labelBackgroundColor=none;endArrow=oval;endFill=0;endSize=8;rounded=0;entryX=0;entryY=0.5;entryDx=0;entryDy=0;exitX=1;exitY=0.5;exitDx=0;exitDy=0;" edge="1" parent="FNHXN5gUOuqcqyS2Xem4-37" source="FNHXN5gUOuqcqyS2Xem4-42" target="FNHXN5gUOuqcqyS2Xem4-45">
          <mxGeometry width="160" relative="1" as="geometry">
            <mxPoint x="390" y="280" as="sourcePoint" />
            <mxPoint x="460" y="280" as="targetPoint" />
          </mxGeometry>
        </mxCell>
      </root>
    </mxGraphModel>
  </diagram>
</mxfile>
